<?xml version="1.0" encoding="UTF-8" standalone="no"?>
<!-- Created with Inkscape (http://www.inkscape.org/) -->

<svg
   width="16mm"
   height="16mm"
   viewBox="0 0 16 16"
   version="1.1"
   id="svg974"
   inkscape:version="1.1 (c4e8f9e, 2021-05-24)"
   sodipodi:docname="firebrick-logo-without-wordmark.svg"
   xmlns:inkscape="http://www.inkscape.org/namespaces/inkscape"
   xmlns:sodipodi="http://sodipodi.sourceforge.net/DTD/sodipodi-0.dtd"
   xmlns:xlink="http://www.w3.org/1999/xlink"
   xmlns="http://www.w3.org/2000/svg"
   xmlns:svg="http://www.w3.org/2000/svg">
  <sodipodi:namedview
     id="namedview976"
     pagecolor="#505050"
     bordercolor="#ffffff"
     borderopacity="1"
     inkscape:pageshadow="0"
     inkscape:pageopacity="0"
     inkscape:pagecheckerboard="1"
     inkscape:document-units="mm"
     showgrid="false"
     inkscape:zoom="1.0136325"
     inkscape:cx="-49.82082"
     inkscape:cy="30.089802"
     inkscape:window-width="1440"
     inkscape:window-height="755"
     inkscape:window-x="0"
     inkscape:window-y="25"
     inkscape:window-maximized="1"
     inkscape:current-layer="layer1" />
  <defs
     id="defs971">
    <radialGradient
       inkscape:collect="always"
       xlink:href="#linearGradient107193"
       id="radialGradient107195-9-8-5"
       cx="32.8829"
       cy="1.2474451"
       fx="32.8829"
       fy="1.2474451"
       r="8"
       gradientUnits="userSpaceOnUse"
       gradientTransform="matrix(2.2534189,0.01519296,-0.00674203,0.99997727,77.997383,39.355917)" />
    <linearGradient
       inkscape:collect="always"
       id="linearGradient107193">
      <stop
         style="stop-color:#f54c53;stop-opacity:1;"
         offset="0"
         id="stop107189" />
      <stop
         style="stop-color:#da484e;stop-opacity:1"
         offset="1"
         id="stop107191" />
    </linearGradient>
  </defs>
  <g
     inkscape:label="Layer 1"
     inkscape:groupmode="layer"
     id="layer1">
    <g
       id="g1005"
       transform="translate(-144.08792,-33.102921)">
      <rect
         style="fill:url(#radialGradient107195-9-8-5);fill-opacity:1;stroke:none;stroke-width:0.264999;stroke-miterlimit:4;stroke-dasharray:none;stroke-opacity:1"
         id="rect99104-3-7-8"
         width="16"
         height="16"
         x="144.08792"
         y="33.102921"
         rx="2.5" />
      <path
         id="path107876-8-9-5-4-0"
         style="fill:#ffffff;fill-opacity:1;stroke:none;stroke-width:0.173925;stroke-miterlimit:4;stroke-dasharray:none;stroke-opacity:1"
         d="m 150.50673,37.74724 c 0.22719,1.653072 1.02652,3.495312 0.35956,4.969195 -0.63723,1.160116 -1.82619,1.862067 -2.94584,2.489099 -0.45784,0.235023 -0.92866,0.44373 -1.3924,0.666782 2.08227,-0.517606 4.18861,-1.540044 5.63775,-2.808858 0.54931,-0.519007 1.01931,-1.162424 1.18458,-1.911784 0.59642,0.119739 1.20112,0.186581 1.79937,0.30179 l 2.27066,-1.316199 c -0.51524,-0.01071 -0.99119,-0.244439 -1.507,-0.241944 -0.833,-0.144597 -1.67931,-0.02306 -2.51601,-0.113072 -0.18154,-0.7219 -0.37607,-1.442042 -0.49558,-2.177645 0.94376,0.196087 2.05298,0.803423 2.85649,0.249804 l 1.88948,-1.074044 c -3.00656,-0.183225 -7.06259,-1.209337 -7.14106,0.966876 z"
         sodipodi:nodetypes="cccccccccccccc" />
    </g>
  </g>
</svg>
